<svg width="17" height="16" viewBox="0 0 17 16" fill="none" xmlns="http://www.w3.org/2000/svg">
<path d="M8.78694 3.8978C6.51678 3.8978 4.68566 5.72933 4.68566 8C4.68566 10.2707 6.51678 12.1022 8.78694 12.1022C11.0571 12.1022 12.8882 10.2707 12.8882 8C12.8882 5.72933 11.0571 3.8978 8.78694 3.8978ZM8.78694 10.667C7.3199 10.667 6.12057 9.47094 6.12057 8C6.12057 6.52906 7.31633 5.33304 8.78694 5.33304C10.2575 5.33304 11.4533 6.52906 11.4533 8C11.4533 9.47094 10.254 10.667 8.78694 10.667ZM14.0126 3.73C14.0126 4.26197 13.5843 4.68682 13.056 4.68682C12.5241 4.68682 12.0994 4.2584 12.0994 3.73C12.0994 3.20161 12.5277 2.77318 13.056 2.77318C13.5843 2.77318 14.0126 3.20161 14.0126 3.73ZM16.7289 4.7011C16.6683 3.41939 16.3756 2.28406 15.4368 1.34866C14.5016 0.413254 13.3665 0.120495 12.0851 0.0562312C10.7644 -0.0187437 6.8059 -0.0187437 5.48521 0.0562312C4.20735 0.116925 3.07227 0.409684 2.13351 1.34509C1.19475 2.28049 0.905625 3.41582 0.841375 4.69753C0.766417 6.01852 0.766417 9.97791 0.841375 11.2989C0.902055 12.5806 1.19475 13.7159 2.13351 14.6513C3.07227 15.5867 4.20378 15.8795 5.48521 15.9438C6.8059 16.0187 10.7644 16.0187 12.0851 15.9438C13.3665 15.8831 14.5016 15.5903 15.4368 14.6513C16.372 13.7159 16.6647 12.5806 16.7289 11.2989C16.8039 9.97791 16.8039 6.02209 16.7289 4.7011ZM15.0227 12.7163C14.7443 13.416 14.2053 13.9551 13.5022 14.2372C12.4492 14.6549 9.95058 14.5585 8.78694 14.5585C7.6233 14.5585 5.12113 14.6513 4.07172 14.2372C3.37211 13.9587 2.83312 13.4196 2.55114 12.7163C2.13351 11.6631 2.22989 9.1639 2.22989 8C2.22989 6.8361 2.13708 4.33337 2.55114 3.28372C2.82955 2.58396 3.36854 2.04485 4.07172 1.7628C5.1247 1.34509 7.6233 1.44148 8.78694 1.44148C9.95058 1.44148 12.4528 1.34866 13.5022 1.7628C14.2018 2.04128 14.7408 2.58039 15.0227 3.28372C15.4404 4.33694 15.344 6.8361 15.344 8C15.344 9.1639 15.4404 11.6666 15.0227 12.7163Z" fill="white"/>
</svg>
