<svg width="19" height="16" viewBox="0 0 19 16" fill="none" xmlns="http://www.w3.org/2000/svg">
<path d="M17.4994 0H2.06685C1.35971 0 0.785156 0.517857 0.785156 1.15357V14.8464C0.785156 15.4821 1.35971 16 2.06685 16H17.4994C18.2066 16 18.7852 15.4821 18.7852 14.8464V1.15357C18.7852 0.517857 18.2066 0 17.4994 0ZM6.22533 13.7143H3.55748V6.07857H6.22935V13.7143H6.22533ZM4.89141 5.03571C4.0356 5.03571 3.34453 4.41786 3.34453 3.66071C3.34453 2.90357 4.0356 2.28571 4.89141 2.28571C5.74319 2.28571 6.43828 2.90357 6.43828 3.66071C6.43828 4.42143 5.74721 5.03571 4.89141 5.03571ZM16.2258 13.7143H13.5579V10C13.5579 9.11429 13.5378 7.975 12.1718 7.975C10.7816 7.975 10.5686 8.93929 10.5686 9.93571V13.7143H7.90078V6.07857H10.4602V7.12143H10.4963C10.8539 6.52143 11.7258 5.88929 13.0235 5.88929C15.7235 5.88929 16.2258 7.47143 16.2258 9.52857V13.7143Z" fill="white"/>
</svg>
