<svg width="19" height="16" viewBox="0 0 19 16" fill="none" xmlns="http://www.w3.org/2000/svg">
<path d="M16.9291 3.98749C16.9406 4.16248 16.9406 4.33751 16.9406 4.5125C16.9406 9.84997 13.2167 16 6.41039 16C4.3135 16 2.3656 15.3375 0.727051 14.1875C1.02498 14.225 1.31141 14.2375 1.6208 14.2375C3.35098 14.2375 4.94371 13.6 6.21559 12.5125C4.58851 12.475 3.22496 11.3125 2.75516 9.7125C2.98435 9.74997 3.2135 9.77498 3.45414 9.77498C3.78643 9.77498 4.11874 9.72496 4.4281 9.63751C2.73227 9.26247 1.46035 7.63749 1.46035 5.67499V5.62501C1.95304 5.92501 2.52601 6.11251 3.13326 6.13748C2.13638 5.41247 1.48328 4.17498 1.48328 2.77497C1.48328 2.02499 1.66658 1.33749 1.98743 0.737481C3.80932 3.18748 6.54787 4.78745 9.61868 4.96248C9.5614 4.66248 9.52701 4.35001 9.52701 4.03751C9.52701 1.81248 11.177 0 13.2281 0C14.2937 0 15.2562 0.487499 15.9322 1.275C16.7687 1.10001 17.5707 0.762491 18.2812 0.300002C18.0061 1.23752 17.4218 2.02502 16.6541 2.52499C17.3989 2.43753 18.1208 2.21248 18.7853 1.90001C18.2813 2.69998 17.651 3.41245 16.9291 3.98749Z" fill="white"/>
</svg>
